<svg width="48" height="64" viewBox="0 0 48 64" fill="none" xmlns="http://www.w3.org/2000/svg">
<path fill-rule="evenodd" clip-rule="evenodd" d="M13.8213 6.60175L14.0415 6.59919H14.0415C15.1243 6.58707 16.0832 6.57634 16.9965 6.26509C17.0744 6.23852 17.1518 6.21034 17.2286 6.18059C18.1283 5.832 18.8698 5.22384 19.707 4.53712L19.8773 4.39754C21.0504 3.43776 21.8005 2.82815 22.416 2.43284C22.99 2.06419 23.2596 2.00924 23.4378 2.00176C23.4937 1.99941 23.5497 1.99941 23.6056 2.00176C23.7838 2.00924 24.0534 2.06419 24.6274 2.43284C25.243 2.82815 25.993 3.43776 27.1661 4.39754L27.3364 4.53711C28.1737 5.22384 28.9151 5.832 29.8148 6.18059C29.8916 6.21034 29.969 6.23852 30.047 6.26509C30.9602 6.57634 31.9191 6.58707 33.0019 6.59919L33.2221 6.60175C34.7377 6.62058 35.7041 6.63569 36.4297 6.72853C37.1064 6.81511 37.3482 6.94629 37.4896 7.05513C37.5339 7.08925 37.5768 7.12522 37.6181 7.16294C37.7498 7.28323 37.921 7.4986 38.1238 8.15C38.3412 8.84848 38.5239 9.79757 38.8056 11.2869L38.8464 11.5032C39.0463 12.5675 39.2234 13.51 39.6885 14.3553C39.7282 14.4275 39.7694 14.4988 39.812 14.5693C40.3116 15.3947 41.0392 16.0193 41.8609 16.7246L42.0279 16.8681C43.1768 17.8568 43.9074 18.4895 44.4036 19.0271C44.8664 19.5284 44.9673 19.7843 45.0056 19.9585C45.0176 20.0131 45.0273 20.0683 45.0347 20.1237C45.0583 20.3005 45.051 20.5755 44.7876 21.2049C44.5052 21.8797 44.0351 22.7242 43.2936 24.0461L43.1858 24.2381C42.6548 25.1819 42.1847 26.0177 41.9976 26.9642C41.9816 27.045 41.9673 27.1262 41.9547 27.2075C41.8068 28.161 41.9627 29.1072 42.1388 30.1756L42.1745 30.3929C42.4191 31.8888 42.5721 32.8431 42.6067 33.5738C42.6389 34.2553 42.5517 34.5162 42.4691 34.6743C42.4431 34.7239 42.4152 34.7723 42.3852 34.8195C42.2896 34.9702 42.1072 35.1761 41.5009 35.489C40.8508 35.8244 39.9479 36.1691 38.5301 36.7052L38.3241 36.7829C37.3108 37.1646 36.4133 37.5026 35.6616 38.1075C35.5975 38.1591 35.5343 38.2121 35.4724 38.2663C34.7462 38.9016 34.2574 39.7266 33.7056 40.6583L33.5932 40.8477C32.8191 42.1508 32.3228 42.9802 31.8796 43.5622C31.4663 44.105 31.2318 44.2488 31.0668 44.3168C31.0151 44.3381 30.9626 44.3572 30.9092 44.3741C30.7392 44.4281 30.4671 44.4686 29.8016 44.3186C29.088 44.1576 28.1747 43.8413 26.744 43.3406L26.5362 43.2677C25.5146 42.9088 24.6099 42.5909 23.6452 42.571C23.5629 42.5693 23.4805 42.5693 23.3982 42.571C22.4336 42.5909 21.5288 42.9088 20.5072 43.2677L20.2994 43.3406C18.8687 43.8413 17.9555 44.1576 17.2418 44.3186C16.5763 44.4686 16.3042 44.4281 16.1342 44.3741C16.0809 44.3572 16.0283 44.3381 15.9766 44.3168C15.8116 44.2488 15.5771 44.105 15.1638 43.5622C14.7206 42.9802 14.2243 42.1508 13.4502 40.8477L13.3379 40.6583C12.786 39.7266 12.2972 38.9016 11.571 38.2663C11.5091 38.2121 11.446 38.1591 11.3818 38.1075C10.6301 37.5026 9.73264 37.1646 8.71929 36.7829L8.51327 36.7052C7.09551 36.1691 6.19257 35.8244 5.54246 35.489C4.93617 35.1761 4.7538 34.9702 4.6582 34.8195C4.62823 34.7723 4.60026 34.7239 4.57435 34.6743C4.49171 34.5162 4.40451 34.2553 4.43675 33.5738C4.47133 32.8431 4.62426 31.8888 4.86889 30.3929L4.90461 30.1756L4.90461 30.1756C5.0807 29.1072 5.23665 28.161 5.0887 27.2075C5.07607 27.1262 5.06177 27.045 5.0458 26.9642C4.85873 26.0177 4.38856 25.1819 3.85766 24.2381L3.74979 24.0461C3.0083 22.7242 2.53819 21.8797 2.25577 21.2049C1.9924 20.5755 1.9851 20.3005 2.00868 20.1237C2.01607 20.0683 2.02579 20.0131 2.0378 19.9585C2.07612 19.7843 2.17704 19.5284 2.63978 19.0271C3.13597 18.4895 3.86656 17.8568 5.01546 16.8681L5.18249 16.7246C6.00417 16.0193 6.73185 15.3947 7.23136 14.5693C7.27401 14.4988 7.31519 14.4275 7.3549 14.3553C7.82 13.51 7.99709 12.5675 8.19704 11.5033L8.19705 11.5033L8.2378 11.2869C8.51953 9.79757 8.70222 8.84848 8.91965 8.15C9.12243 7.4986 9.29361 7.28323 9.42534 7.16294C9.46664 7.12522 9.5095 7.08925 9.55382 7.05513C9.69516 6.94629 9.93698 6.81511 10.6137 6.72853C11.3393 6.63569 12.3057 6.62058 13.8213 6.60175ZM18.6109 2.84959C20.8845 0.989495 22.0212 0.0594467 23.354 0.00351754C23.4657 -0.00117251 23.5777 -0.00117251 23.6894 0.00351754C25.0222 0.0594467 26.1589 0.989495 28.4325 2.84959C29.4395 3.67346 29.943 4.08539 30.5374 4.31568C30.5886 4.33552 30.6402 4.3543 30.6922 4.37202C31.2955 4.57765 31.946 4.58573 33.2469 4.6019C36.1842 4.63841 37.6529 4.65666 38.7098 5.47049C38.7984 5.53873 38.8841 5.61067 38.9667 5.6861C39.9517 6.58561 40.2247 8.02878 40.7708 10.9151C41.0126 12.1935 41.1335 12.8327 41.4408 13.3912C41.4673 13.4393 41.4947 13.4869 41.5231 13.5338C41.8531 14.0792 42.3462 14.5035 43.3325 15.3521C45.5591 17.2682 46.6724 18.2262 46.9589 19.5289C46.9829 19.6382 47.0024 19.7484 47.0172 19.8593C47.1935 21.1815 46.475 22.4625 45.038 25.0245L45.0379 25.0246L45.0379 25.0247C44.4015 26.1594 44.0832 26.7267 43.9597 27.352C43.949 27.4059 43.9395 27.46 43.931 27.5142C43.8333 28.1441 43.9383 28.7861 44.1483 30.0701L44.1483 30.0701L44.1483 30.0702L44.1483 30.0702C44.6224 32.9692 44.8594 34.4187 44.2415 35.6008C44.1897 35.6999 44.1337 35.7968 44.0738 35.8913C43.359 37.0175 41.9852 37.537 39.2375 38.5759C38.0205 39.0361 37.412 39.2661 36.9154 39.6657C36.8726 39.7001 36.8305 39.7354 36.7892 39.7716C36.6956 39.8535 36.6076 39.9407 36.5217 40.0363V57.9442L36.5217 58.0248V58.0248C36.5218 59.324 36.5218 60.411 36.3987 61.2425C36.2703 62.1101 35.9751 62.9468 35.1752 63.4752C34.3753 64.0036 33.4899 63.9467 32.6414 63.7244C31.8283 63.5113 30.8285 63.0846 29.6336 62.5747L29.6335 62.5747L29.5595 62.5431L24.699 60.4693C23.8476 60.106 23.6785 60.0542 23.5217 60.0542C23.3649 60.0542 23.1959 60.106 22.3444 60.4693L17.4839 62.5431L17.4099 62.5747L17.4097 62.5748C16.2149 63.0847 15.2151 63.5113 14.402 63.7244C13.5536 63.9467 12.6681 64.0036 11.8682 63.4752C11.0683 62.9468 10.7731 62.1101 10.6447 61.2425C10.5216 60.411 10.5217 59.3239 10.5217 58.0248L10.5217 57.9442V40.0363C10.4358 39.9407 10.3478 39.8535 10.2542 39.7716C10.2129 39.7354 10.1708 39.7001 10.128 39.6657C9.63144 39.2662 9.02299 39.0361 7.80614 38.576L7.80605 38.5759L7.80596 38.5759C5.05825 37.537 3.68441 37.0175 2.9696 35.8913C2.90966 35.7968 2.85371 35.6999 2.80189 35.6008C2.18395 34.4186 2.42101 32.9691 2.89511 30.0701C3.1051 28.7861 3.21009 28.1441 3.11236 27.5142C3.10394 27.46 3.0944 27.4059 3.08375 27.352C2.96017 26.7267 2.64193 26.1593 2.00544 25.0245C0.568405 22.4625 -0.150113 21.1815 0.0262354 19.8593C0.0410237 19.7484 0.0604565 19.6382 0.0844825 19.5289C0.37099 18.2262 1.48431 17.2682 3.71093 15.3521C4.69716 14.5035 5.19027 14.0792 5.52027 13.5338C5.5487 13.4869 5.57616 13.4393 5.60263 13.3912C5.9099 12.8327 6.03081 12.1935 6.27265 10.9151L6.27265 10.9151C6.81866 8.02878 7.09167 6.58561 8.07666 5.6861C8.15926 5.61067 8.24498 5.53873 8.33361 5.47049C9.3905 4.65666 10.8592 4.63841 13.7965 4.6019C15.0974 4.58573 15.7479 4.57765 16.3513 4.37202C16.4032 4.3543 16.4548 4.33552 16.506 4.31568C17.1004 4.08539 17.6039 3.67346 18.6109 2.84959ZM12.5217 43.1896V57.9442C12.5217 59.3452 12.5243 60.2822 12.6231 60.9496C12.7191 61.5981 12.8728 61.7418 12.9705 61.8064C13.0683 61.871 13.2608 61.9559 13.8949 61.7897C14.5476 61.6187 15.4105 61.2533 16.699 60.7036L21.5595 58.6298L21.691 58.5735C22.3329 58.2984 22.9028 58.0542 23.5217 58.0542C24.1407 58.0542 24.7105 58.2984 25.3525 58.5735L25.4839 58.6298L30.3444 60.7036C31.6329 61.2533 32.4958 61.6187 33.1485 61.7897C33.7826 61.9559 33.9751 61.871 34.0729 61.8064C34.1706 61.7418 34.3243 61.5981 34.4203 60.9496C34.5191 60.2822 34.5217 59.3452 34.5217 57.9442V43.1896C33.5061 44.8524 32.8252 45.7552 31.8291 46.1658C31.7257 46.2085 31.6205 46.2467 31.5139 46.2806C30.2424 46.6838 28.8561 46.1987 26.0834 45.2284L26.0833 45.2283C24.8553 44.7986 24.2413 44.5837 23.6041 44.5706C23.5492 44.5695 23.4942 44.5695 23.4393 44.5706C22.8021 44.5837 22.1881 44.7986 20.9601 45.2283L20.96 45.2284C18.1874 46.1987 16.801 46.6838 15.5295 46.2806C15.4229 46.2467 15.3177 46.2085 15.2143 46.1658C14.2182 45.7552 13.5373 44.8524 12.5217 43.1896ZM30.2288 20.539L22.2288 28.539L21.5217 29.2461L20.8146 28.539L16.8146 24.539L18.2288 23.1248L21.5217 26.4177L28.8146 19.1248L30.2288 20.539ZM34.5217 23.8319C34.5217 29.907 29.5968 34.8319 23.5217 34.8319C17.4466 34.8319 12.5217 29.907 12.5217 23.8319C12.5217 17.7567 17.4466 12.8319 23.5217 12.8319C29.5968 12.8319 34.5217 17.7567 34.5217 23.8319ZM36.5217 23.8319C36.5217 31.0116 30.7014 36.8319 23.5217 36.8319C16.342 36.8319 10.5217 31.0116 10.5217 23.8319C10.5217 16.6522 16.342 10.8319 23.5217 10.8319C30.7014 10.8319 36.5217 16.6522 36.5217 23.8319Z" fill="#FF6231"/>
</svg>
