<svg width="82" height="49" viewBox="0 0 82 49" fill="none" xmlns="http://www.w3.org/2000/svg">
    <path fill-rule="evenodd" clip-rule="evenodd"
          d="M2 25.2929V22.7076L15.8781 36.5857L16.5845 35.8779L2 21.2934V18.7071L17.8762 34.5834L18.5826 33.8755L2 17.2929V14.7071L19.8741 32.5812L20.5805 31.8734L2 13.2929V10.7071L21.872 30.5791L22.5783 29.8713L2 9.29293V6C2 4.52925 2.00425 3.62738 2.092 2.97468C2.16913 2.40099 2.27884 2.3052 2.29185 2.29383L2.29289 2.29289L2.29383 2.29185C2.30519 2.27883 2.40099 2.16913 2.97468 2.092C3.62738 2.00425 4.52925 2 6 2H27H34C38.7706 2 42.1473 2.00425 44.7062 2.34828C47.2076 2.68458 48.6259 3.31222 49.6569 4.34315C49.8715 4.55776 50.0686 4.78916 50.2493 5.04362L20 35.2929L19.9968 35.2897L19.2905 35.9976L19.2929 36L18.1774 37.1155C17.7967 37.0397 17.403 37 17 37C16.0414 37 15.1354 37.2248 14.3316 37.6245L2 25.2929ZM2 26.7071L13.4531 38.1602C12.959 38.5228 12.5225 38.9593 12.1599 39.4534L2 29.2935V26.7071ZM2 30.7077L11.6243 40.332C11.3668 40.85 11.1819 41.4104 11.083 42H10.7066L2 33.2934V30.7077ZM2 34.7076L9.29244 42H6.70665L2 37.2934V34.7076ZM2.00078 38.7083L5.29166 41.9992C4.22714 41.9961 3.5154 41.9807 2.97468 41.908C2.40098 41.8309 2.30519 41.7212 2.29383 41.7082L2.29289 41.7071L2.29184 41.7062C2.27884 41.6948 2.16913 41.599 2.092 41.0253C2.0193 40.4846 2.00391 39.7729 2.00078 38.7083ZM50.7694 5.93776L19.2649 37.4422C19.854 37.6825 20.3963 38.0137 20.8744 38.4185L51.4071 7.88575C51.2385 7.1217 51.0278 6.48376 50.7694 5.93776ZM53.3326 7.33255C52.9073 5.47917 52.211 4.06885 51.0711 2.92893C48.1421 0 43.4281 0 34 0H27H6C3.17157 0 1.75736 0 0.878681 0.87868C0 1.75736 0 3.17157 0 6V22V38C0 40.8284 0 42.2426 0.878681 43.1213C1.75736 44 3.17157 44 6 44H11.083C11.559 46.8377 14.027 49 17 49C19.973 49 22.441 46.8377 22.917 44H27H48C50.8284 44 52.2426 44 53.1213 43.1213C54 42.2426 54 40.8284 54 38V22V20C54 14.2638 54 10.2726 53.3404 7.36675L53.3536 7.35355L53.3326 7.33255ZM51.6225 9.08456L21.5815 39.1256C21.9863 39.6037 22.3175 40.146 22.5578 40.7351L51.8553 11.4376C51.8061 10.6625 51.7401 9.95116 51.6517 9.29378C51.6422 9.22318 51.6325 9.15345 51.6225 9.08456ZM22.917 42C22.9071 41.9406 22.8962 41.8814 22.8845 41.8226L51.9226 12.7845C51.9524 13.5655 51.9708 14.4051 51.9821 15.3108L25.2929 42H22.917ZM26.7071 42H27H29.2929L51.9999 19.293C51.9997 18.3816 51.9986 17.523 51.9942 16.7129L26.7071 42ZM33.2929 42H30.7071L52 20.7071V22V23.2929L33.2929 42ZM34.7071 42H37.2929L52 27.2929V24.7071L34.7071 42ZM41.2929 42H38.7071L52 28.7071V31.2929L41.2929 42ZM46.7071 42H48C48.4921 42 48.9206 41.9995 49.2973 41.9956L51.9956 39.2973C51.9995 38.9206 52 38.4921 52 38V36.7071L46.7071 42ZM45.2929 42H42.7071L52 32.7071V35.2929L45.2929 42ZM51.0253 41.908C50.9443 41.9189 50.8594 41.9285 50.7701 41.937L51.937 40.7701C51.9285 40.8594 51.9189 40.9443 51.908 41.0253C51.8309 41.599 51.7212 41.6948 51.7082 41.7062L51.7071 41.7071L51.7062 41.7082C51.6948 41.7212 51.599 41.8309 51.0253 41.908ZM77 30H78V29V28C78 24.6863 75.3137 22 72 22H71H70L69.9456 22H69.9455C69.5215 21.9999 69.1094 21.9998 68.7695 22.0455C68.3863 22.097 67.949 22.2226 67.5858 22.5858C67.2226 22.949 67.097 23.3863 67.0455 23.7695C66.9998 24.1094 66.9999 24.5215 67 24.9456L67 25V26V27L67 27.0544C66.9999 27.4785 66.9998 27.8906 67.0455 28.2305C67.097 28.6137 67.2226 29.051 67.5858 29.4142C67.949 29.7774 68.3863 29.903 68.7695 29.9545C69.1094 30.0002 69.5215 30.0001 69.9455 30H69.9456L70 30H72.5H77ZM68 25C68 24.0572 68 23.5858 68.2929 23.2929C68.5858 23 69.0572 23 70 23H71H72C74.7614 23 77 25.2386 77 28V29H76H72.5H70C69.0572 29 68.5858 29 68.2929 28.7071C68 28.4142 68 27.9428 68 27V26V25ZM17 47C19.2091 47 21 45.2091 21 43C21 40.7909 19.2091 39 17 39C14.7909 39 13 40.7909 13 43C13 45.2091 14.7909 47 17 47ZM58 38V31V24C58 22.5292 58.0042 21.6274 58.092 20.9747C58.1691 20.401 58.2788 20.3052 58.2918 20.2938L58.2929 20.2929L58.2938 20.2918C58.3052 20.2788 58.401 20.1691 58.9747 20.092C59.6274 20.0042 60.5292 20 62 20H69C71.9046 20 73.0049 20.0139 73.8676 20.221C76.7928 20.9233 79.0767 23.2072 79.779 26.1324C79.9861 26.9951 80 28.0954 80 31V38C80 39.4708 79.9958 40.3726 79.908 41.0253C79.8309 41.599 79.7212 41.6948 79.7082 41.7062L79.7071 41.7071L79.7062 41.7082C79.6948 41.7212 79.599 41.8309 79.0253 41.908C78.3726 41.9958 77.4707 42 76 42H74.917C74.441 39.1623 71.973 37 69 37C66.027 37 63.559 39.1623 63.083 42H62C60.5292 42 59.6274 41.9958 58.9747 41.908C58.401 41.8309 58.3052 41.7212 58.2938 41.7082L58.2929 41.7071L58.2918 41.7062C58.2788 41.6948 58.1691 41.599 58.092 41.0253C58.0042 40.3726 58 39.4708 58 38ZM76 44H74.917C74.441 46.8377 71.973 49 69 49C66.027 49 63.559 46.8377 63.083 44H62C59.1716 44 57.7574 44 56.8787 43.1213C56 42.2426 56 40.8284 56 38V31V24C56 21.1716 56 19.7574 56.8787 18.8787C57.7574 18 59.1716 18 62 18H69C71.789 18 73.1836 18 74.3345 18.2763C77.9909 19.1541 80.8459 22.0091 81.7237 25.6655C82 26.8164 82 28.2109 82 31V38C82 40.8284 82 42.2426 81.1213 43.1213C80.2426 44 78.8284 44 76 44ZM69 47C71.2091 47 73 45.2091 73 43C73 40.7909 71.2091 39 69 39C66.7909 39 65 40.7909 65 43C65 45.2091 66.7909 47 69 47ZM34.7071 17.7071L24.7071 27.7071L24 28.4142L23.2929 27.7071L18.2929 22.7071L19.7071 21.2929L24 25.5858L33.2929 16.2929L34.7071 17.7071Z"
          fill="#FF6231"/>
</svg>
