<svg width="62" height="62" viewBox="0 0 62 62" fill="none" xmlns="http://www.w3.org/2000/svg">
<path fill-rule="evenodd" clip-rule="evenodd" d="M12.9241 3.37763e-07H13H31.0003H49.0005H49.0764C51.8405 -1.83781e-05 54.0169 -3.33985e-05 55.7174 0.228588C57.4622 0.463167 58.8548 0.954805 59.9503 2.05025C61.0457 3.1457 61.5373 4.53835 61.7719 6.28312C62.0005 7.98358 62.0005 10.16 62.0005 12.924V13V31.0003V49.0005V49.0765C62.0005 51.8405 62.0005 54.0169 61.7719 55.7174C61.5373 57.4622 61.0457 58.8548 59.9503 59.9503C58.8548 61.0457 57.4622 61.5373 55.7174 61.7719C54.0169 62.0005 51.8405 62.0005 49.0765 62.0005H49.0005H31.0003H13H12.924C10.16 62.0005 7.98358 62.0005 6.28312 61.7719C4.53835 61.5373 3.1457 61.0457 2.05025 59.9503C0.954805 58.8548 0.463167 57.4622 0.228588 55.7174C-3.33985e-05 54.0169 -1.83781e-05 51.8405 3.37763e-07 49.0764V49.0005V31.0003V13V12.9241V12.9241C-1.83781e-05 10.16 -3.31151e-05 7.98359 0.228588 6.28312C0.463167 4.53835 0.954805 3.1457 2.05025 2.05025C3.1457 0.954805 4.53835 0.463167 6.28312 0.228588C7.98358 -3.31153e-05 10.16 -1.83781e-05 12.9241 3.37763e-07H12.9241ZM6.27548 2.25064L6.27554 2.25124C6.30757 2.57559 6.37985 2.79403 6.54294 2.95713C6.83583 3.25002 7.30724 3.25002 8.25004 3.25002H8.50006H8.75008C9.69289 3.25002 10.1643 3.25002 10.4572 2.95713C10.6585 2.75584 10.7214 2.47026 10.7411 2.0053C9.01532 2.01811 7.65754 2.0618 6.54962 2.21075C6.45591 2.22335 6.36456 2.23664 6.27548 2.25064ZM15.0001 2H13C12.5619 2 12.1429 2.00005 11.742 2.00089C11.7356 2.17113 11.7244 2.33267 11.7046 2.48054C11.653 2.86374 11.5275 3.30102 11.1643 3.66423C10.8011 4.02745 10.3638 4.15297 9.9806 4.20449C9.64069 4.25019 9.22856 4.25011 8.80449 4.25003L8.75008 4.25002H8.50006H8.25004L8.19563 4.25003C7.77157 4.25011 7.35944 4.25019 7.01953 4.20449C6.63632 4.15297 6.19905 4.02745 5.83583 3.66423C5.51921 3.34761 5.38321 2.97471 5.3194 2.63041C4.15832 3.21137 3.21137 4.15832 2.63041 5.3194C2.97471 5.38321 3.34761 5.51921 3.66423 5.83583C4.02745 6.19905 4.15297 6.63632 4.20449 7.01953C4.25019 7.35944 4.25011 7.77157 4.25003 8.19563L4.25002 8.25005V8.50006V8.75008L4.25003 8.80449C4.25011 9.22856 4.25019 9.64069 4.20449 9.9806C4.15297 10.3638 4.02745 10.8011 3.66423 11.1643C3.30102 11.5275 2.86374 11.653 2.48054 11.7046C2.33267 11.7244 2.17113 11.7357 2.00089 11.742C2.00005 12.1429 2 12.5619 2 13V15.0001L5.25812 15.0001C5.26444 14.8296 5.27566 14.6677 5.29557 14.5196C5.34709 14.1364 5.47262 13.6991 5.83583 13.3359C6.19905 12.9727 6.63632 12.8472 7.01953 12.7956C7.3594 12.7499 7.77148 12.75 8.19551 12.7501H8.19552H8.19553H8.19554H8.19555H8.19557H8.19558H8.19559H8.1956H8.19561H8.19562H8.19563L8.25004 12.7501H8.50006H8.75008L8.80449 12.7501H8.8045H8.80451H8.80453H8.80454H8.80455H8.80456H8.80457H8.80458H8.80459H8.80461H8.80462C9.22864 12.75 9.64072 12.7499 9.9806 12.7956C10.3638 12.8472 10.8011 12.9727 11.1643 13.3359C11.5275 13.6991 11.653 14.1364 11.7046 14.5196C11.7245 14.6677 11.7357 14.8296 11.742 15.0001L15.0001 15.0001V11.742C14.8296 11.7357 14.6677 11.7245 14.5196 11.7046C14.1364 11.653 13.6991 11.5275 13.3359 11.1643C12.9727 10.8011 12.8472 10.3638 12.7956 9.9806C12.7499 9.64072 12.75 9.22865 12.7501 8.80462V8.80461V8.8046V8.80459V8.80457V8.80456V8.80455V8.80454V8.80453V8.80452V8.80451V8.80449L12.7501 8.75008V8.50006V8.25005L12.7501 8.19564V8.19563V8.19561V8.1956V8.19559V8.19558V8.19557V8.19556V8.19555V8.19553V8.19552V8.19551C12.75 7.77148 12.7499 7.3594 12.7956 7.01953C12.8472 6.63632 12.9727 6.19905 13.3359 5.83583C13.6991 5.47262 14.1364 5.3471 14.5196 5.29558C14.6677 5.27566 14.8296 5.26444 15.0001 5.25812V2ZM2.0053 10.7411C2.47026 10.7214 2.75585 10.6585 2.95713 10.4572C3.25002 10.1643 3.25002 9.69289 3.25002 8.75008V8.50006V8.25005C3.25002 7.30724 3.25002 6.83583 2.95713 6.54294C2.79404 6.37985 2.57559 6.30757 2.25124 6.27554L2.25064 6.27548C2.23664 6.36456 2.22335 6.45591 2.21075 6.54962C2.0618 7.65754 2.01811 9.01532 2.0053 10.7411ZM6.24979 16.0001H6.25004V15.7501C6.25004 14.8073 6.25004 14.3359 6.54294 14.043C6.83583 13.7501 7.30724 13.7501 8.25004 13.7501H8.50006H8.75008C9.69289 13.7501 10.1643 13.7501 10.4572 14.043C10.7501 14.3359 10.7501 14.8073 10.7501 15.7501V15.9999H10.7498V16.2499C10.7498 17.1927 10.7498 17.6641 10.4569 17.957C10.164 18.2499 9.69264 18.2499 8.74983 18.2499H8.49981H8.24979C7.30698 18.2499 6.83558 18.2499 6.54269 17.957C6.24979 17.6641 6.24979 17.1927 6.24979 16.2499V16.0001ZM16 16.0001H15.9999V16.9999V20.2499V21.2499H15.7499C14.807 21.2499 14.3356 21.2499 14.0427 21.5428C13.7499 21.8357 13.7499 22.3071 13.7499 23.2499V23.4999V23.75C13.7499 24.6928 13.7499 25.1642 14.0427 25.4571C14.3356 25.75 14.807 25.75 15.7499 25.75H15.9999V26.75V30V31V32V35.25V36.25H15.7499C14.807 36.25 14.3356 36.25 14.0427 36.5429C13.7499 36.8358 13.7499 37.3072 13.7499 38.25V38.5001V38.7501C13.7499 39.6929 13.7499 40.1643 14.0427 40.4572C14.3356 40.7501 14.807 40.7501 15.7499 40.7501H15.9999V41.7501V45.0001V46.0001V47.0001V50.2502V51.2502H15.7499C14.807 51.2502 14.3356 51.2502 14.0427 51.5431C13.7499 51.836 13.7499 52.3074 13.7499 53.2502V53.5002V53.7502C13.7499 54.693 13.7499 55.1644 14.0427 55.4573C14.3356 55.7502 14.807 55.7502 15.7499 55.7502H15.9999H16.2499C17.1927 55.7502 17.6641 55.7502 17.957 55.4573C18.2499 55.1644 18.2499 54.693 18.2499 53.7502V53.5002V53.2502C18.2499 52.3074 18.2499 51.836 17.957 51.5431C17.6641 51.2502 17.1927 51.2502 16.2499 51.2502H15.9999V50.2502V47.0001V46.0001H16.9999H20.2499H21.2499V46.2502C21.2499 47.193 21.2499 47.6644 21.5428 47.9573C21.8357 48.2502 22.3071 48.2502 23.2499 48.2502H23.4999H23.75C24.6928 48.2502 25.1642 48.2502 25.4571 47.9573C25.75 47.6644 25.75 47.193 25.75 46.2502V46.0001H26.75H30H31H32H35.25H36.25V46.2502C36.25 47.193 36.25 47.6644 36.5429 47.9573C36.8358 48.2502 37.3072 48.2502 38.25 48.2502H38.5001H38.7501C39.6929 48.2502 40.1643 48.2502 40.4572 47.9573C40.7501 47.6644 40.7501 47.193 40.7501 46.2502V46.0001H41.7501H45.0001H46.0001L46.0001 45.0001V41.7501V40.7501H46.2502C47.193 40.7501 47.6644 40.7501 47.9573 40.4572C48.2502 40.1643 48.2502 39.6929 48.2502 38.7501V38.5001V38.25C48.2502 37.3072 48.2502 36.8358 47.9573 36.5429C47.6644 36.25 47.193 36.25 46.2502 36.25H46.0001V35.25V32V31V30V26.75V25.75H46.2502C47.193 25.75 47.6644 25.75 47.9573 25.4571C48.2502 25.1642 48.2502 24.6928 48.2502 23.75V23.4999V23.2499C48.2502 22.3071 48.2502 21.8357 47.9573 21.5428C47.6644 21.2499 47.193 21.2499 46.2502 21.2499H46.0001V20.2499V16.9999V15.9999H47.0001H50.2502H51.2502V16.2499C51.2502 17.1927 51.2502 17.6641 51.5431 17.957C51.836 18.2499 52.3074 18.2499 53.2502 18.2499H53.5002H53.7502C54.693 18.2499 55.1644 18.2499 55.4573 17.957C55.7502 17.6641 55.7502 17.1927 55.7502 16.2499V15.9999H56.7502L55.7502 15.9999V15.7499C55.7502 14.807 55.7502 14.3356 55.4573 14.0428C55.1644 13.7499 54.693 13.7499 53.7502 13.7499H53.5002H53.2502C52.3074 13.7499 51.836 13.7499 51.5431 14.0428C51.2502 14.3356 51.2502 14.807 51.2502 15.7499V15.9999H50.2502L47.0001 15.9999H46.0001H45.0001L41.7501 15.9999H40.7501V15.7499C40.7501 14.807 40.7501 14.3356 40.4572 14.0428C40.1643 13.7499 39.6929 13.7499 38.7501 13.7499H38.5001H38.25C37.3072 13.7499 36.8358 13.7499 36.5429 14.0428C36.25 14.3356 36.25 14.807 36.25 15.7499V15.9999H35.25L32 15.9999H31H30L26.75 15.9999H25.75V15.7499C25.75 14.807 25.75 14.3356 25.4571 14.0428C25.1642 13.7499 24.6928 13.7499 23.75 13.7499H23.4999H23.2499C22.3071 13.7499 21.8357 13.7499 21.5428 14.0428C21.2499 14.3356 21.2499 14.807 21.2499 15.7499V15.9999H20.2499L16.9999 15.9999H16.0001V16H17L20.25 16H21.25V16.25C21.25 17.1928 21.25 17.6643 21.5429 17.9571C21.8358 18.25 22.3072 18.25 23.25 18.25H23.5H23.75C24.6928 18.25 25.1642 18.25 25.4571 17.9571L26.1642 18.6643C25.801 19.0275 25.3638 19.153 24.9806 19.2045C24.6406 19.2502 24.2285 19.2501 23.8044 19.25L23.75 19.25H23.5H23.25L23.1956 19.25C22.7715 19.2501 22.3594 19.2502 22.0195 19.2045C21.6363 19.153 21.199 19.0275 20.8358 18.6643C20.4726 18.301 20.347 17.8638 20.2955 17.4806C20.2756 17.3324 20.2644 17.1706 20.2581 17L17 17V20.2581C17.1706 20.2644 17.3325 20.2756 17.4807 20.2955C17.8639 20.347 18.3012 20.4726 18.6644 20.8358C19.0276 21.199 19.1531 21.6363 19.2046 22.0195C19.2503 22.3594 19.2503 22.7715 19.2502 23.1956L19.2502 23.25V23.5V23.75L19.2502 23.8044C19.2503 24.2285 19.2503 24.6406 19.2046 24.9806C19.1531 25.3638 19.0276 25.801 18.6644 26.1642C18.3012 26.5275 17.8639 26.653 17.4807 26.7045C17.3325 26.7244 17.1706 26.7357 17 26.742V35.2581C17.1706 35.2644 17.3325 35.2756 17.4807 35.2955C17.8639 35.347 18.3012 35.4726 18.6644 35.8358C19.0276 36.199 19.1531 36.6363 19.2046 37.0195C19.2503 37.3594 19.2503 37.7715 19.2502 38.1956L19.2502 38.25V38.5V38.75L19.2502 38.8045C19.2503 39.2285 19.2503 39.6406 19.2046 39.9806C19.1531 40.3638 19.0276 40.801 18.6644 41.1643C18.3012 41.5275 17.8639 41.653 17.4807 41.7045C17.3325 41.7244 17.1706 41.7356 17 41.742V45L20.2581 45C20.2644 44.8294 20.2756 44.6676 20.2955 44.5195C20.347 44.1363 20.4726 43.699 20.8358 43.3358C21.199 42.9726 21.6363 42.847 22.0195 42.7955C22.3594 42.7498 22.7715 42.7499 23.1956 42.75L23.25 42.75H23.5H23.75L23.8044 42.75C24.2285 42.7499 24.6406 42.7498 24.9806 42.7955C25.3638 42.847 25.801 42.9726 26.1642 43.3358L25.4571 44.0429C25.1642 43.75 24.6928 43.75 23.75 43.75H23.5H23.25C22.3072 43.75 21.8358 43.75 21.5429 44.0429C21.2546 44.3312 21.2501 44.7925 21.25 45.7061V45.75V46H20.25L17 46H16V41.75V40.75H16.0001H16.2502C17.193 40.75 17.6644 40.75 17.9573 40.4571C18.2502 40.1643 18.2502 39.6928 18.2502 38.75V38.5V38.25C18.2502 37.3072 18.2502 36.8358 17.9573 36.5429C17.6644 36.25 17.193 36.25 16.2502 36.25H16.0001H16V35.25V26.75V25.75H16.0001H16.2502C17.193 25.75 17.6644 25.75 17.9573 25.4571C18.2502 25.1643 18.2502 24.6928 18.2502 23.75V23.5V23.25C18.2502 22.3072 18.2502 21.8358 17.9573 21.5429C17.6644 21.25 17.193 21.25 16.2502 21.25H16.0001H16V20.25V17V16.0001ZM25.4571 44.0429C25.75 44.3358 25.75 44.8072 25.75 45.75V46H26.75H35.25H36.25V45.75C36.25 44.8072 36.25 44.3358 36.5429 44.0429C36.8358 43.75 37.3072 43.75 38.25 43.75H38.5H38.75C39.6928 43.75 40.1642 43.75 40.4571 44.0429C40.75 44.3358 40.75 44.8072 40.75 45.75V46H41.75H45H46V45V41.75V40.75H45.7501C44.8073 40.75 44.3359 40.75 44.043 40.4571C43.7501 40.1643 43.7501 39.6928 43.7501 38.75V38.5V38.25C43.7501 37.3072 43.7501 36.8358 44.043 36.5429C44.3359 36.25 44.8073 36.25 45.7501 36.25H46V35.25V26.75V25.75H45.7501C44.8073 25.75 44.3359 25.75 44.043 25.4571C43.7501 25.1643 43.7501 24.6928 43.7501 23.75V23.5V23.25C43.7501 22.3072 43.7501 21.8358 44.043 21.5429C44.3359 21.25 44.8073 21.25 45.7501 21.25H46V20.25L46 17L46 16H45L41.75 16H40.75V16.25C40.75 17.1928 40.75 17.6643 40.4571 17.9571C40.1642 18.25 39.6928 18.25 38.75 18.25H38.5H38.25C37.3072 18.25 36.8358 18.25 36.5429 17.9571C36.25 17.6643 36.25 17.1928 36.25 16.25V16H35.25H26.75H25.75V16.25C25.75 17.1928 25.75 17.6643 25.4571 17.9571L26.1643 18.6643C26.5275 18.301 26.653 17.8638 26.7045 17.4806C26.7244 17.3324 26.7356 17.1706 26.742 17H35.2581C35.2644 17.1706 35.2756 17.3324 35.2955 17.4806C35.347 17.8638 35.4726 18.301 35.8358 18.6643C36.199 19.0275 36.6363 19.153 37.0195 19.2045C37.3594 19.2502 37.7715 19.2501 38.1956 19.25L38.25 19.25H38.5H38.75L38.8045 19.25C39.2285 19.2501 39.6406 19.2502 39.9806 19.2045C40.3638 19.153 40.801 19.0275 41.1642 18.6643C41.5275 18.301 41.653 17.8638 41.7045 17.4806C41.7244 17.3324 41.7356 17.1706 41.742 17L45 17V20.2581C44.8295 20.2644 44.6677 20.2756 44.5196 20.2955C44.1364 20.347 43.6991 20.4726 43.3359 20.8358C42.9727 21.199 42.8472 21.6363 42.7957 22.0195C42.75 22.3594 42.75 22.7715 42.7501 23.1956L42.7501 23.25V23.5V23.75L42.7501 23.8044C42.75 24.2285 42.75 24.6406 42.7957 24.9806C42.8472 25.3638 42.9727 25.801 43.3359 26.1642C43.6991 26.5275 44.1364 26.653 44.5196 26.7045C44.6677 26.7244 44.8295 26.7356 45 26.742V35.2581C44.8295 35.2644 44.6677 35.2756 44.5196 35.2955C44.1364 35.347 43.6991 35.4726 43.3359 35.8358C42.9727 36.199 42.8472 36.6363 42.7957 37.0195C42.75 37.3594 42.75 37.7715 42.7501 38.1956L42.7501 38.25V38.5V38.75L42.7501 38.8044C42.75 39.2285 42.75 39.6406 42.7957 39.9806C42.8472 40.3638 42.9727 40.801 43.3359 41.1643C43.6991 41.5275 44.1364 41.653 44.5196 41.7045C44.6677 41.7244 44.8295 41.7356 45 41.742V45H41.742C41.7356 44.8294 41.7244 44.6676 41.7045 44.5195C41.653 44.1363 41.5275 43.699 41.1642 43.3358C40.801 42.9726 40.3638 42.847 39.9806 42.7955C39.6406 42.7498 39.2285 42.7499 38.8044 42.75L38.75 42.75H38.5H38.25L38.1956 42.75C37.7715 42.7499 37.3594 42.7498 37.0195 42.7955C36.6363 42.847 36.199 42.9726 35.8358 43.3358C35.4726 43.699 35.347 44.1363 35.2955 44.5195C35.2756 44.6676 35.2644 44.8295 35.2581 45H26.742C26.7356 44.8295 26.7244 44.6676 26.7045 44.5195C26.653 44.1363 26.5275 43.699 26.1643 43.3358L25.4571 44.0429ZM59.9996 11.7417L60.0003 12.194V14.9999L56.7421 14.9999C56.7358 14.8293 56.7246 14.6675 56.7047 14.5193C56.6532 14.1361 56.5276 13.6989 56.1644 13.3356C55.8012 12.9724 55.3639 12.8469 54.9807 12.7954C54.6408 12.7497 54.2287 12.7498 53.8046 12.7498L53.7502 12.7499H53.5002H53.2502L53.1958 12.7498C52.7717 12.7498 52.3596 12.7497 52.0197 12.7954C51.6365 12.8469 51.1992 12.9724 50.836 13.3356C50.4727 13.6989 50.3472 14.1361 50.2957 14.5193C50.2758 14.6675 50.2646 14.8293 50.2583 14.9999L47.0001 14.9999V11.7418C47.1707 11.7354 47.3325 11.7242 47.4807 11.7043C47.8639 11.6528 48.3012 11.5273 48.6644 11.164C49.0276 10.8008 49.1531 10.3636 49.2046 9.98035C49.2503 9.64044 49.2502 9.22831 49.2502 8.80424L49.2502 8.74983V8.49981V8.24979L49.2502 8.19538C49.2502 7.77131 49.2503 7.35919 49.2046 7.01927C49.1531 6.63607 49.0276 6.1988 48.6644 5.83558C48.3012 5.47236 47.8639 5.34684 47.4807 5.29532C47.3325 5.27541 47.1707 5.26419 47.0001 5.25787V2H49.0005C49.4385 2 49.8574 2.00005 50.2583 2.00089C50.2646 2.17104 50.2758 2.33249 50.2957 2.48029C50.3472 2.86349 50.4727 3.30076 50.836 3.66398C51.1992 4.0272 51.6365 4.15272 52.0197 4.20424C52.3596 4.24994 52.7717 4.24986 53.1958 4.24977L53.2502 4.24977H53.5002H53.7502L53.8046 4.24977C54.2287 4.24986 54.6408 4.24994 54.9807 4.20424C55.3639 4.15272 55.8012 4.0272 56.1644 3.66398L55.4573 2.95687L56.1644 3.66398C56.5276 3.30076 56.6532 2.86349 56.7047 2.48029L56.7075 2.45881C57.513 2.68413 58.0809 3.00931 58.536 3.46447C58.9911 3.91952 59.3162 4.48722 59.5415 5.29246L59.5197 5.29532C59.1365 5.34684 58.6992 5.47237 58.336 5.83558C57.9728 6.1988 57.8473 6.63607 57.7958 7.01927C57.7501 7.35914 57.7502 7.77121 57.7502 8.19522V8.19538L57.7502 8.24979V8.49981V8.74983L57.7502 8.80424V8.80441C57.7502 9.22842 57.7501 9.64048 57.7958 9.98035C57.8473 10.3636 57.9728 10.8008 58.336 11.164C58.6992 11.5273 59.1365 11.6528 59.5197 11.7043C59.6677 11.7242 59.8293 11.7354 59.9996 11.7417ZM55.4573 2.95687C55.1644 3.24977 54.693 3.24977 53.7502 3.24977H53.5002H53.2502C52.3074 3.24977 51.836 3.24977 51.5431 2.95687C51.3418 2.75563 51.2789 2.47011 51.2592 2.0053C52.9851 2.01811 54.3429 2.06179 55.4509 2.21075C55.5445 2.22334 55.6358 2.23661 55.7248 2.2506C55.6927 2.57516 55.6205 2.79372 55.4573 2.95687ZM59.9952 10.7409C59.9824 9.0152 59.9387 7.65749 59.7898 6.54962C59.7771 6.45582 59.7638 6.36438 59.7498 6.27521C59.425 6.3072 59.2064 6.37946 59.0431 6.54269C58.7502 6.83558 58.7502 7.30698 58.7502 8.24979V8.49981V8.74983C58.7502 9.69264 58.7502 10.164 59.0431 10.4569C59.2445 10.6583 59.5301 10.7212 59.9952 10.7409ZM46.0001 6.24979H45.7501C44.8073 6.24979 44.3359 6.24979 44.043 6.54269C43.7501 6.83558 43.7501 7.30698 43.7501 8.24979V8.49981V8.74983C43.7501 9.69264 43.7501 10.164 44.043 10.4569C44.3359 10.7498 44.8073 10.7498 45.7501 10.7498H46.0001H46.2502C47.193 10.7498 47.6644 10.7498 47.9573 10.4569C48.2502 10.164 48.2502 9.69264 48.2502 8.74983V8.49981V8.24979C48.2502 7.30698 48.2502 6.83558 47.9573 6.54269C47.6644 6.24979 47.193 6.24979 46.2502 6.24979H46.0001ZM58.7502 23.2499C58.7502 22.3071 58.7502 21.8357 59.0431 21.5428C59.2452 21.3407 59.5323 21.2781 60.0005 21.2587V25.7412C59.5323 25.7218 59.2452 25.6591 59.0431 25.4571C58.7502 25.1642 58.7502 24.6928 58.7502 23.75V23.4999V23.2499ZM55.7502 30.75V31V31.25C55.7502 32.1928 55.7502 32.6642 55.4573 32.9571C55.1644 33.25 54.693 33.25 53.7502 33.25H53.5002H53.2502C52.3074 33.25 51.836 33.25 51.5431 32.9571C51.2502 32.6642 51.2502 32.1928 51.2502 31.25V31V30.75C51.2502 29.8072 51.2502 29.3358 51.5431 29.0429C51.836 28.75 52.3074 28.75 53.2502 28.75H53.5002H53.7502C54.693 28.75 55.1644 28.75 55.4573 29.0429C55.7502 29.3358 55.7502 29.8072 55.7502 30.75ZM58.7502 38.7501C58.7502 39.6929 58.7502 40.1643 59.0431 40.4572C59.2452 40.6593 59.5323 40.7219 60.0005 40.7414V36.2588C59.5323 36.2782 59.2452 36.3409 59.0431 36.5429C58.7502 36.8358 58.7502 37.3072 58.7502 38.25V38.5001V38.7501ZM55.7502 46.0001V45.7501C55.7502 44.8073 55.7502 44.3359 55.4573 44.043C55.1644 43.7501 54.693 43.7501 53.7502 43.7501H53.5002H53.2502C52.3074 43.7501 51.836 43.7501 51.5431 44.043C51.2502 44.3359 51.2502 44.8073 51.2502 45.7501V46.0001V46.2502C51.2502 47.193 51.2502 47.6644 51.5431 47.9573C51.836 48.2502 52.3074 48.2502 53.2502 48.2502H53.5002H53.7502C54.693 48.2502 55.1644 48.2502 55.4573 47.9573C55.7502 47.6644 55.7502 47.193 55.7502 46.2502V46.0001ZM57.7958 52.0197C57.8473 51.6365 57.9728 51.1992 58.336 50.836C58.6992 50.4728 59.1365 50.3472 59.5197 50.2957C59.6677 50.2758 59.8293 50.2646 59.9996 50.2583L60.0003 49.8065V47.0001H56.7421C56.7358 47.1707 56.7246 47.3325 56.7047 47.4807C56.6532 47.8639 56.5276 48.3011 56.1644 48.6644C55.8012 49.0276 55.3639 49.1531 54.9807 49.2046C54.6408 49.2503 54.2287 49.2502 53.8046 49.2502L53.7502 49.2502H53.5002H53.2502L53.1958 49.2502C52.7717 49.2502 52.3596 49.2503 52.0197 49.2046C51.6365 49.1531 51.1992 49.0276 50.836 48.6644C50.4727 48.3011 50.3472 47.8639 50.2957 47.4807C50.2758 47.3325 50.2646 47.1707 50.2583 47.0001H47.0001V50.2583C47.1707 50.2646 47.3325 50.2758 47.4807 50.2957C47.8639 50.3472 48.3012 50.4727 48.6644 50.836C49.0276 51.1992 49.1531 51.6365 49.2046 52.0197C49.2503 52.3596 49.2502 52.7717 49.2502 53.1958L49.2502 53.2502V53.5002V53.7502L49.2502 53.8046C49.2502 54.2287 49.2503 54.6408 49.2046 54.9807C49.1531 55.3639 49.0276 55.8012 48.6644 56.1644C48.3012 56.5276 47.8639 56.6532 47.4807 56.7047C47.3325 56.7246 47.1707 56.7358 47.0001 56.7421V60.0003H49.8065L50.2583 59.9996C50.2646 59.8293 50.2758 59.6677 50.2957 59.5197C50.3472 59.1365 50.4727 58.6992 50.836 58.336C51.1992 57.9728 51.6365 57.8473 52.0197 57.7958C52.3596 57.7501 52.7717 57.7502 53.1957 57.7502H53.1958L53.2502 57.7502H53.5002H53.7502L53.8046 57.7502H53.8047C54.2287 57.7502 54.6408 57.7501 54.9807 57.7958C55.3639 57.8473 55.8012 57.9728 56.1644 58.336C56.5276 58.6992 56.6532 59.1365 56.7047 59.5197L56.7076 59.5417C57.4739 59.3273 58.0251 59.0226 58.4688 58.6016C58.5139 58.5581 58.5582 58.5138 58.6016 58.4687C59.0226 58.025 59.3273 57.4738 59.5417 56.7076L59.5197 56.7047C59.1365 56.6532 58.6992 56.5276 58.336 56.1644C57.9728 55.8012 57.8473 55.3639 57.7958 54.9807C57.7501 54.6409 57.7502 54.2288 57.7502 53.8048V53.8046L57.7502 53.7502V53.5002V53.2502L57.7502 53.1958V53.1956C57.7502 52.7716 57.7501 52.3595 57.7958 52.0197ZM51.5431 59.0431C51.3418 59.2445 51.2788 59.5301 51.2591 59.9952C52.985 59.9824 54.3429 59.9387 55.4509 59.7898C55.5445 59.7772 55.6358 59.7639 55.7248 59.7499C55.6928 59.4251 55.6206 59.2064 55.4573 59.0431C55.1644 58.7502 54.693 58.7502 53.7502 58.7502H53.5002H53.2502C52.3074 58.7502 51.836 58.7502 51.5431 59.0431ZM59.7898 55.4509C59.7772 55.5445 59.7639 55.6358 59.7499 55.7248C59.4251 55.6928 59.2064 55.6206 59.0431 55.4573C58.7502 55.1644 58.7502 54.693 58.7502 53.7502V53.5002V53.2502C58.7502 52.3074 58.7502 51.836 59.0431 51.5431C59.2445 51.3418 59.5301 51.2788 59.9952 51.2591C59.9824 52.9851 59.9387 54.3429 59.7898 55.4509ZM45.7501 51.2502H46.0001H46.2502C47.193 51.2502 47.6644 51.2502 47.9573 51.5431C48.2502 51.836 48.2502 52.3074 48.2502 53.2502V53.5002V53.7502C48.2502 54.693 48.2502 55.1644 47.9573 55.4573C47.6644 55.7502 47.193 55.7502 46.2502 55.7502H46.0001H45.7501C44.8073 55.7502 44.3359 55.7502 44.043 55.4573C43.7501 55.1644 43.7501 54.693 43.7501 53.7502V53.5002V53.2502C43.7501 52.3074 43.7501 51.836 44.043 51.5431C44.3359 51.2502 44.8073 51.2502 45.7501 51.2502ZM41.742 2H45.0001V5.25787C44.8296 5.26419 44.6677 5.27541 44.5196 5.29532C44.1364 5.34684 43.6991 5.47237 43.3359 5.83558C42.9727 6.1988 42.8472 6.63607 42.7956 7.01927C42.7499 7.35919 42.75 7.77132 42.7501 8.19538L42.7501 8.24979V8.49981V8.74983L42.7501 8.80424C42.75 9.22831 42.7499 9.64044 42.7956 9.98035C42.8472 10.3636 42.9727 10.8008 43.3359 11.164C43.6991 11.5273 44.1364 11.6528 44.5196 11.7043C44.6677 11.7242 44.8296 11.7354 45.0001 11.7418V14.9999L41.742 14.9999C41.7357 14.8293 41.7245 14.6675 41.7046 14.5193C41.653 14.1361 41.5275 13.6989 41.1643 13.3356C40.8011 12.9724 40.3638 12.8469 39.9806 12.7954C39.6407 12.7497 39.2286 12.7498 38.8045 12.7498L38.7501 12.7499H38.5001H38.25L38.1956 12.7498C37.7716 12.7498 37.3594 12.7497 37.0195 12.7954C36.6363 12.8469 36.1991 12.9724 35.8358 13.3356C35.4726 13.6989 35.3471 14.1361 35.2956 14.5193C35.2757 14.6675 35.2644 14.8293 35.2581 14.9999L32 14.9999V11.7418C32.1706 11.7354 32.3324 11.7242 32.4805 11.7043C32.8637 11.6528 33.301 11.5273 33.6642 11.164C34.0275 10.8008 34.153 10.3636 34.2045 9.98035C34.2502 9.64045 34.2501 9.22835 34.25 8.80431V8.80424L34.25 8.74983V8.49981V8.24979L34.25 8.19538V8.19532C34.2501 7.77127 34.2502 7.35917 34.2045 7.01927C34.153 6.63607 34.0275 6.1988 33.6642 5.83558C33.301 5.47236 32.8637 5.34684 32.4805 5.29532C32.3324 5.27541 32.1706 5.26419 32 5.25787V2H35.2581C35.2645 2.17048 35.2757 2.33223 35.2956 2.48029C35.3471 2.86349 35.4726 3.30076 35.8358 3.66398C36.1991 4.0272 36.6363 4.15272 37.0195 4.20424C37.3594 4.24994 37.7716 4.24986 38.1956 4.24977L38.25 4.24977H38.5001H38.7501L38.8045 4.24977C39.2286 4.24986 39.6407 4.24994 39.9806 4.20424C40.3638 4.15272 40.8011 4.0272 41.1643 3.66398C41.5275 3.30076 41.653 2.86349 41.7046 2.48029C41.7245 2.33223 41.7357 2.17048 41.742 2ZM40.7413 2H36.2588C36.2783 2.46794 36.3409 2.75486 36.5429 2.95687C36.8358 3.24977 37.3072 3.24977 38.25 3.24977H38.5001H38.7501C39.6929 3.24977 40.1643 3.24977 40.4572 2.95687C40.6592 2.75486 40.7219 2.46794 40.7413 2ZM31 10.7498H31.25C32.1928 10.7498 32.6642 10.7498 32.9571 10.4569C33.25 10.164 33.25 9.69264 33.25 8.74983V8.49981V8.24979C33.25 7.30698 33.25 6.83558 32.9571 6.54269C32.6642 6.24979 32.1928 6.24979 31.25 6.24979H31H30.75C29.8072 6.24979 29.3358 6.24979 29.0429 6.54269C28.75 6.83558 28.75 7.30698 28.75 8.24979V8.49981V8.74983C28.75 9.69264 28.75 10.164 29.0429 10.4569C29.3358 10.7498 29.8072 10.7498 30.75 10.7498H31ZM40.4572 59.0431C40.6593 59.2452 40.7219 59.5323 40.7414 60.0005H36.2588C36.2782 59.5323 36.3409 59.2452 36.5429 59.0431C36.8358 58.7502 37.3072 58.7502 38.25 58.7502H38.5001H38.7501C39.6929 58.7502 40.1643 58.7502 40.4572 59.0431ZM31.25 55.7502H31H30.75C29.8072 55.7502 29.3358 55.7502 29.0429 55.4573C28.75 55.1644 28.75 54.693 28.75 53.7502V53.5002V53.2502C28.75 52.3074 28.75 51.836 29.0429 51.5431C29.3358 51.2502 29.8072 51.2502 30.75 51.2502H31H31.25C32.1928 51.2502 32.6642 51.2502 32.9571 51.5431C33.25 51.836 33.25 52.3074 33.25 53.2502V53.5002V53.7502C33.25 54.693 33.25 55.1644 32.9571 55.4573C32.6642 55.7502 32.1928 55.7502 31.25 55.7502ZM26.7419 2H30V5.25787C29.8294 5.26419 29.6676 5.27541 29.5195 5.29532C29.1363 5.34684 28.699 5.47237 28.3358 5.83558C27.9726 6.1988 27.847 6.63607 27.7955 7.01927C27.7498 7.35919 27.7499 7.77132 27.75 8.19538L27.75 8.24979V8.49981V8.74983L27.75 8.80424C27.7499 9.22831 27.7498 9.64044 27.7955 9.98035C27.847 10.3636 27.9726 10.8008 28.3358 11.164C28.699 11.5273 29.1363 11.6528 29.5195 11.7043C29.6676 11.7242 29.8294 11.7354 30 11.7418V14.9999L26.7419 14.9999C26.7356 14.8293 26.7243 14.6675 26.7044 14.5193C26.6529 14.1361 26.5274 13.6989 26.1642 13.3356C25.801 12.9724 25.3637 12.8469 24.9805 12.7954C24.6406 12.7497 24.2284 12.7498 23.8044 12.7498L23.75 12.7499H23.4999H23.2499L23.1955 12.7498C22.7714 12.7498 22.3593 12.7497 22.0194 12.7954C21.6362 12.8469 21.1989 12.9724 20.8357 13.3356C20.4725 13.6989 20.347 14.1361 20.2954 14.5193C20.2755 14.6675 20.2643 14.8293 20.258 14.9999L16.9999 14.9999V11.7418C17.1704 11.7354 17.3323 11.7242 17.4804 11.7043C17.8636 11.6528 18.3009 11.5273 18.6641 11.164C19.0273 10.8008 19.1528 10.3636 19.2044 9.98035C19.2501 9.64045 19.25 9.22835 19.2499 8.8043V8.80424L19.2499 8.74983V8.49981V8.24979L19.2499 8.19538V8.19532C19.25 7.77127 19.2501 7.35917 19.2044 7.01927C19.1528 6.63607 19.0273 6.1988 18.6641 5.83558C18.3009 5.47236 17.8636 5.34684 17.4804 5.29532C17.3323 5.27541 17.1704 5.26419 16.9999 5.25787V2H20.258C20.2643 2.17048 20.2755 2.33223 20.2954 2.48029C20.347 2.86349 20.4725 3.30076 20.8357 3.66398C21.1989 4.0272 21.6362 4.15272 22.0194 4.20424C22.3593 4.24994 22.7714 4.24986 23.1955 4.24977L23.2499 4.24977H23.4999H23.75L23.8044 4.24977C24.2284 4.24986 24.6406 4.24994 24.9805 4.20424C25.3637 4.15272 25.801 4.0272 26.1642 3.66398C26.5274 3.30076 26.6529 2.86349 26.7044 2.48029C26.7243 2.33223 26.7356 2.17048 26.7419 2ZM25.7412 2H21.2587C21.2781 2.46794 21.3408 2.75486 21.5428 2.95687C21.8357 3.24977 22.3071 3.24977 23.2499 3.24977H23.4999H23.75C24.6928 3.24977 25.1642 3.24977 25.4571 2.95687C25.6591 2.75486 25.7218 2.46794 25.7412 2ZM16.0001 6.24979H16.2499C17.1927 6.24979 17.6641 6.24979 17.957 6.54269C18.2499 6.83558 18.2499 7.30698 18.2499 8.24979V8.49981V8.74983C18.2499 9.69264 18.2499 10.164 17.957 10.4569C17.6641 10.7498 17.1927 10.7498 16.2499 10.7498H15.9999V10.7501H15.7501C14.8073 10.7501 14.3359 10.7501 14.043 10.4572C13.7501 10.1643 13.7501 9.69289 13.7501 8.75008V8.50006V8.25005C13.7501 7.30724 13.7501 6.83583 14.043 6.54294C14.3359 6.25005 14.8073 6.25005 15.7501 6.25005H16.0001V6.24979ZM11.7417 59.9996L12.194 60.0003H14.9999V56.7421C14.8293 56.7358 14.6675 56.7246 14.5193 56.7047C14.1361 56.6532 13.6989 56.5276 13.3356 56.1644C12.9724 55.8012 12.8469 55.3639 12.7954 54.9807C12.7497 54.6408 12.7498 54.2287 12.7498 53.8046L12.7499 53.7502V53.5002V53.2502L12.7498 53.1958C12.7498 52.7717 12.7497 52.3596 12.7954 52.0197C12.8469 51.6365 12.9724 51.1992 13.3356 50.836C13.6989 50.4728 14.1361 50.3472 14.5193 50.2957C14.6675 50.2758 14.8293 50.2646 14.9999 50.2583V47.0001H11.7418C11.7354 47.1707 11.7242 47.3325 11.7043 47.4807C11.6528 47.8639 11.5273 48.3011 11.164 48.6644C10.8008 49.0276 10.3636 49.1531 9.98035 49.2046C9.64043 49.2503 9.22831 49.2502 8.80424 49.2502L8.74983 49.2502H8.49981H8.24979L8.19538 49.2502C7.77131 49.2502 7.35919 49.2503 7.01927 49.2046C6.63607 49.1531 6.19879 49.0276 5.83558 48.6644C5.47236 48.3011 5.34684 47.8639 5.29532 47.4807C5.27541 47.3325 5.26418 47.1707 5.25787 47.0001H2V49.0005C2 49.4385 2.00005 49.8574 2.00089 50.2583C2.17104 50.2646 2.33249 50.2758 2.48029 50.2957C2.86349 50.3472 3.30077 50.4727 3.66398 50.836C4.0272 51.1992 4.15272 51.6365 4.20424 52.0197C4.24994 52.3596 4.24986 52.7717 4.24978 53.1958L4.24977 53.2502V53.5002V53.7502L4.24978 53.8046C4.24986 54.2287 4.24994 54.6408 4.20424 54.9807C4.15272 55.3639 4.0272 55.8012 3.66398 56.1644C3.30077 56.5276 2.86349 56.6532 2.48029 56.7047L2.45881 56.7075C2.68413 57.513 3.00931 58.0809 3.46447 58.536C3.91952 58.9911 4.48722 59.3162 5.29246 59.5415L5.29532 59.5197C5.34684 59.1365 5.47236 58.6992 5.83558 58.336C6.19879 57.9728 6.63607 57.8473 7.01927 57.7958C7.35917 57.7501 7.77127 57.7502 8.19532 57.7502H8.19538L8.24979 57.7502H8.49981H8.74983L8.80424 57.7502H8.8043C9.22835 57.7502 9.64045 57.7501 9.98035 57.7958C10.3636 57.8473 10.8008 57.9728 11.164 58.336C11.5273 58.6992 11.6528 59.1365 11.7043 59.5197C11.7242 59.6677 11.7354 59.8293 11.7417 59.9996ZM6.24979 46.2502L6.24979 46.0001V45.7501C6.24979 44.8073 6.24979 44.3359 6.54269 44.043C6.83558 43.7501 7.30698 43.7501 8.24979 43.7501H8.49981H8.74983C9.69264 43.7501 10.164 43.7501 10.4569 44.043C10.7498 44.3359 10.7498 44.8073 10.7498 45.7501V46.0001V46.2502C10.7498 47.193 10.7498 47.6644 10.4569 47.9573C10.164 48.2502 9.69264 48.2502 8.74983 48.2502H8.49981H8.24979C7.30698 48.2502 6.83558 48.2502 6.54269 47.9573C6.24979 47.6644 6.24979 47.193 6.24979 46.2502ZM2.21075 55.4509C2.06179 54.3429 2.01811 52.9851 2.0053 51.2592C2.47011 51.2789 2.75563 51.3418 2.95687 51.5431C3.24977 51.836 3.24977 52.3074 3.24977 53.2502V53.5002V53.7502C3.24977 54.693 3.24977 55.1644 2.95687 55.4573C2.79372 55.6205 2.57517 55.6927 2.2506 55.7248C2.23661 55.6358 2.22334 55.5445 2.21075 55.4509ZM6.54962 59.7898C6.45582 59.7771 6.36438 59.7638 6.27521 59.7498C6.3072 59.425 6.37946 59.2064 6.54269 59.0431C6.83558 58.7502 7.30698 58.7502 8.24979 58.7502H8.49981H8.74983C9.69264 58.7502 10.164 58.7502 10.4569 59.0431C10.6583 59.2445 10.7212 59.5301 10.7409 59.9952C9.0152 59.9824 7.65749 59.9387 6.54962 59.7898ZM2 16.9999V20.258C2.17048 20.2643 2.33223 20.2755 2.48029 20.2955C2.86349 20.347 3.30077 20.4725 3.66398 20.8357C4.0272 21.1989 4.15272 21.6362 4.20424 22.0194C4.24994 22.3593 4.24986 22.7714 4.24978 23.1955L4.24977 23.2499V23.4999V23.75L4.24978 23.8044C4.24986 24.2284 4.24994 24.6406 4.20424 24.9805C4.15272 25.3637 4.0272 25.801 3.66398 26.1642C3.30077 26.5274 2.86349 26.6529 2.48029 26.7044C2.33223 26.7243 2.17048 26.7356 2 26.7419V30H5.25787C5.26418 29.8294 5.27541 29.6676 5.29532 29.5195C5.34684 29.1363 5.47236 28.699 5.83558 28.3358C6.19879 27.9726 6.63607 27.847 7.01927 27.7955C7.35917 27.7498 7.77127 27.7499 8.19532 27.75H8.19538L8.24979 27.75H8.49981H8.74983L8.80424 27.75H8.8043C9.22835 27.7499 9.64045 27.7498 9.98035 27.7955C10.3636 27.847 10.8008 27.9726 11.164 28.3358C11.5273 28.699 11.6528 29.1363 11.7043 29.5195C11.7242 29.6676 11.7354 29.8294 11.7418 30H14.9999V26.7419C14.8293 26.7356 14.6675 26.7243 14.5193 26.7044C14.1361 26.6529 13.6989 26.5274 13.3356 26.1642C12.9724 25.801 12.8469 25.3637 12.7954 24.9805C12.7497 24.6406 12.7498 24.2284 12.7498 23.8044L12.7499 23.75V23.4999V23.2499L12.7498 23.1955C12.7498 22.7714 12.7497 22.3593 12.7954 22.0194C12.8469 21.6362 12.9724 21.1989 13.3356 20.8357C13.6989 20.4725 14.1361 20.347 14.5193 20.2955C14.6675 20.2755 14.8293 20.2643 14.9999 20.258V16.9999H11.7418C11.7354 17.1704 11.7242 17.3323 11.7043 17.4804C11.6528 17.8636 11.5273 18.3009 11.164 18.6641C10.8008 19.0273 10.3636 19.1528 9.98035 19.2044C9.64043 19.2501 9.22831 19.25 8.80424 19.2499L8.74983 19.2499H8.49981H8.24979L8.19538 19.2499C7.77131 19.25 7.35919 19.2501 7.01927 19.2044C6.63607 19.1528 6.19879 19.0273 5.83558 18.6641C5.47236 18.3009 5.34684 17.8636 5.29532 17.4804C5.27541 17.3323 5.26418 17.1704 5.25787 16.9999H2ZM2 25.7412V21.2587C2.46794 21.2781 2.75486 21.3408 2.95687 21.5428C3.24977 21.8357 3.24977 22.3071 3.24977 23.2499V23.4999V23.75C3.24977 24.6928 3.24977 25.1642 2.95687 25.4571C2.75486 25.6591 2.46794 25.7218 2 25.7412ZM10.7498 30.75V31V31.25C10.7498 32.1928 10.7498 32.6642 10.4569 32.9571C10.164 33.25 9.69264 33.25 8.74983 33.25H8.49981H8.24979C7.30698 33.25 6.83558 33.25 6.54269 32.9571C6.24979 32.6642 6.24979 32.1928 6.24979 31.25V31V30.75C6.24979 29.8072 6.24979 29.3358 6.54269 29.0429C6.83558 28.75 7.30698 28.75 8.24979 28.75H8.49981H8.74983C9.69264 28.75 10.164 28.75 10.4569 29.0429C10.7498 29.3358 10.7498 29.8072 10.7498 30.75ZM2 45.0001V41.742C2.17048 41.7357 2.33223 41.7245 2.48029 41.7046C2.86349 41.653 3.30077 41.5275 3.66398 41.1643C4.0272 40.8011 4.15272 40.3638 4.20424 39.9806C4.24994 39.6407 4.24986 39.2286 4.24978 38.8045L4.24977 38.7501V38.5001V38.25L4.24978 38.1956C4.24986 37.7716 4.24994 37.3594 4.20424 37.0195C4.15272 36.6363 4.0272 36.1991 3.66398 35.8358C3.30077 35.4726 2.86349 35.3471 2.48029 35.2956C2.33223 35.2757 2.17048 35.2645 2 35.2581V32H5.25787C5.26418 32.1706 5.27541 32.3324 5.29532 32.4805C5.34684 32.8637 5.47236 33.301 5.83558 33.6642C6.19879 34.0275 6.63607 34.153 7.01927 34.2045C7.35919 34.2502 7.77131 34.2501 8.19538 34.25L8.24979 34.25H8.49981H8.74983L8.80424 34.25C9.22831 34.2501 9.64043 34.2502 9.98035 34.2045C10.3636 34.153 10.8008 34.0275 11.164 33.6642C11.5273 33.301 11.6528 32.8637 11.7043 32.4805C11.7242 32.3324 11.7354 32.1706 11.7418 32H14.9999V35.2581C14.8293 35.2644 14.6675 35.2757 14.5193 35.2956C14.1361 35.3471 13.6989 35.4726 13.3356 35.8358C12.9724 36.1991 12.8469 36.6363 12.7954 37.0195C12.7497 37.3594 12.7498 37.7716 12.7498 38.1956L12.7499 38.25V38.5001V38.7501L12.7498 38.8045C12.7498 39.2286 12.7497 39.6407 12.7954 39.9806C12.8469 40.3638 12.9724 40.8011 13.3356 41.1643C13.6989 41.5275 14.1361 41.653 14.5193 41.7046C14.6675 41.7245 14.8293 41.7357 14.9999 41.742V45.0001L11.7418 45.0001C11.7354 44.8296 11.7242 44.6677 11.7043 44.5196C11.6528 44.1364 11.5273 43.6991 11.164 43.3359C10.8008 42.9727 10.3636 42.8472 9.98035 42.7956C9.64043 42.7499 9.22831 42.75 8.80424 42.7501L8.74983 42.7501H8.49981H8.24979L8.19538 42.7501C7.77131 42.75 7.35919 42.7499 7.01927 42.7956C6.63607 42.8472 6.19879 42.9727 5.83558 43.3359C5.47236 43.6991 5.34684 44.1364 5.29532 44.5196C5.27541 44.6677 5.26418 44.8296 5.25787 45.0001L2 45.0001ZM2 36.2588C2.46794 36.2783 2.75486 36.3409 2.95687 36.5429C3.24977 36.8358 3.24977 37.3072 3.24977 38.25V38.5001V38.7501C3.24977 39.6929 3.24977 40.1643 2.95687 40.4572C2.75486 40.6592 2.46794 40.7219 2 40.7413V36.2588ZM21.5428 59.0431C21.8357 58.7502 22.3071 58.7502 23.2499 58.7502H23.4999H23.75C24.6928 58.7502 25.1642 58.7502 25.4571 59.0431C25.6591 59.2452 25.7218 59.5323 25.7412 60.0005H21.2586C21.2781 59.5323 21.3407 59.2452 21.5428 59.0431ZM26.7419 47.0001C26.7356 47.1707 26.7243 47.3325 26.7044 47.4807C26.6529 47.8639 26.5274 48.3011 26.1642 48.6644C25.801 49.0276 25.3637 49.1531 24.9805 49.2046C24.6406 49.2503 24.2284 49.2502 23.8044 49.2502L23.75 49.2502H23.4999H23.2499L23.1955 49.2502C22.7714 49.2502 22.3593 49.2503 22.0194 49.2046C21.6362 49.1531 21.1989 49.0276 20.8357 48.6644C20.4725 48.3011 20.347 47.8639 20.2954 47.4807C20.2755 47.3325 20.2643 47.1707 20.258 47.0001H16.9999V50.2583C17.1704 50.2646 17.3323 50.2758 17.4804 50.2957C17.8636 50.3472 18.3009 50.4727 18.6641 50.836C19.0273 51.1992 19.1528 51.6365 19.2044 52.0197C19.2501 52.3596 19.25 52.7717 19.2499 53.1958L19.2499 53.2502V53.5002V53.7502L19.2499 53.8046C19.25 54.2287 19.2501 54.6408 19.2044 54.9807C19.1528 55.3639 19.0273 55.8012 18.6641 56.1644C18.3009 56.5276 17.8636 56.6532 17.4804 56.7047C17.3323 56.7246 17.1704 56.7358 16.9999 56.7421V60.0003H20.258C20.2643 59.8297 20.2755 59.6679 20.2954 59.5197C20.347 59.1365 20.4725 58.6992 20.8357 58.336C21.1989 57.9728 21.6362 57.8473 22.0194 57.7958C22.3593 57.7501 22.7714 57.7502 23.1954 57.7502H23.1955L23.2499 57.7502H23.4999H23.75L23.8044 57.7502H23.8044C24.2285 57.7502 24.6406 57.7501 24.9805 57.7958C25.3637 57.8473 25.801 57.9728 26.1642 58.336C26.5274 58.6992 26.6529 59.1365 26.7044 59.5197C26.7243 59.6679 26.7356 59.8297 26.7419 60.0003H30V56.7421C29.8294 56.7358 29.6676 56.7246 29.5195 56.7047C29.1363 56.6532 28.699 56.5276 28.3358 56.1644C27.9726 55.8012 27.847 55.3639 27.7955 54.9807C27.7498 54.6408 27.7499 54.2287 27.75 53.8046L27.75 53.7502V53.5002V53.2502L27.75 53.1958C27.7499 52.7717 27.7498 52.3596 27.7955 52.0197C27.847 51.6365 27.9726 51.1992 28.3358 50.836C28.699 50.4728 29.1363 50.3472 29.5195 50.2957C29.6676 50.2758 29.8294 50.2646 30 50.2583V47.0001H26.7419ZM32 50.2583C32.1706 50.2646 32.3324 50.2758 32.4805 50.2957C32.8637 50.3472 33.301 50.4727 33.6642 50.836C34.0275 51.1992 34.153 51.6365 34.2045 52.0197C34.2502 52.3596 34.2501 52.7717 34.25 53.1957V53.1958L34.25 53.2502V53.5002V53.7502L34.25 53.8046V53.8047C34.2501 54.2287 34.2502 54.6408 34.2045 54.9807C34.153 55.3639 34.0275 55.8012 33.6642 56.1644C33.301 56.5276 32.8637 56.6532 32.4805 56.7047C32.3324 56.7246 32.1706 56.7358 32 56.7421V60.0003H35.2581C35.2644 59.8297 35.2757 59.6679 35.2956 59.5197C35.3471 59.1365 35.4726 58.6992 35.8358 58.336C36.1991 57.9728 36.6363 57.8473 37.0195 57.7958C37.3594 57.7501 37.7715 57.7502 38.1956 57.7502H38.1956L38.25 57.7502H38.5001H38.7501L38.8045 57.7502H38.8046C39.2286 57.7502 39.6407 57.7501 39.9806 57.7958C40.3638 57.8473 40.8011 57.9728 41.1643 58.336C41.5275 58.6992 41.653 59.1365 41.7046 59.5197C41.7245 59.6679 41.7357 59.8297 41.742 60.0003H45.0001V56.7421C44.8296 56.7358 44.6677 56.7246 44.5196 56.7047C44.1364 56.6532 43.6991 56.5276 43.3359 56.1644C42.9727 55.8012 42.8472 55.3639 42.7956 54.9807C42.7499 54.6408 42.75 54.2287 42.7501 53.8046L42.7501 53.7502V53.5002V53.2502L42.7501 53.1958C42.75 52.7717 42.7499 52.3596 42.7956 52.0197C42.8472 51.6365 42.9727 51.1992 43.3359 50.836C43.6991 50.4728 44.1364 50.3472 44.5196 50.2957C44.6677 50.2758 44.8296 50.2646 45.0001 50.2583V47.0001H41.742C41.7357 47.1707 41.7245 47.3325 41.7046 47.4807C41.653 47.8639 41.5275 48.3011 41.1643 48.6644C40.8011 49.0276 40.3638 49.1531 39.9806 49.2046C39.6407 49.2503 39.2287 49.2502 38.8047 49.2502H38.8045L38.7501 49.2502H38.5001H38.25L38.1956 49.2502H38.1955C37.7715 49.2502 37.3594 49.2503 37.0195 49.2046C36.6363 49.1531 36.1991 49.0276 35.8358 48.6644C35.4726 48.3011 35.3471 47.8639 35.2956 47.4807C35.2757 47.3325 35.2644 47.1707 35.2581 47.0001H32V50.2583ZM47.4807 35.2956C47.3325 35.2757 47.1707 35.2644 47.0001 35.2581V32H50.2583C50.2646 32.1706 50.2758 32.3324 50.2957 32.4805C50.3472 32.8637 50.4727 33.301 50.836 33.6642C51.1992 34.0275 51.6365 34.153 52.0197 34.2045C52.3596 34.2502 52.7717 34.2501 53.1958 34.25L53.2502 34.25H53.5002H53.7502L53.8046 34.25C54.2287 34.2501 54.6408 34.2502 54.9807 34.2045C55.3639 34.153 55.8012 34.0275 56.1644 33.6642C56.5276 33.301 56.6532 32.8637 56.7047 32.4805C56.7246 32.3324 56.7358 32.1706 56.7421 32H60.0003V35.2581C59.8297 35.2644 59.6679 35.2757 59.5197 35.2956C59.1365 35.3471 58.6992 35.4726 58.336 35.8358C57.9728 36.1991 57.8473 36.6363 57.7958 37.0195C57.7501 37.3594 57.7502 37.7715 57.7502 38.1955V38.1956L57.7502 38.25V38.5001V38.7501L57.7502 38.8045V38.8047C57.7502 39.2287 57.7501 39.6407 57.7958 39.9806C57.8473 40.3638 57.9728 40.8011 58.336 41.1643C58.6992 41.5275 59.1365 41.653 59.5197 41.7046C59.6679 41.7245 59.8297 41.7357 60.0003 41.742V45.0001L56.7421 45.0001C56.7358 44.8296 56.7246 44.6677 56.7047 44.5196C56.6532 44.1364 56.5276 43.6991 56.1644 43.3359C55.8012 42.9727 55.3639 42.8472 54.9807 42.7956C54.6408 42.7499 54.2287 42.75 53.8046 42.7501L53.7502 42.7501H53.5002H53.2502L53.1958 42.7501C52.7717 42.75 52.3596 42.7499 52.0197 42.7956C51.6365 42.8472 51.1992 42.9727 50.836 43.3359C50.4727 43.6991 50.3472 44.1364 50.2957 44.5196C50.2758 44.6677 50.2646 44.8296 50.2583 45.0001L47.0001 45.0001V41.742C47.1707 41.7357 47.3325 41.7245 47.4807 41.7046C47.8639 41.653 48.3012 41.5275 48.6644 41.1643C49.0276 40.8011 49.1531 40.3638 49.2046 39.9806C49.2503 39.6407 49.2502 39.2286 49.2502 38.8045L49.2502 38.7501V38.5001V38.25L49.2502 38.1956C49.2502 37.7716 49.2503 37.3594 49.2046 37.0195C49.1531 36.6363 49.0276 36.1991 48.6644 35.8358C48.3012 35.4726 47.8639 35.3471 47.4807 35.2956ZM47.0001 20.258C47.1707 20.2643 47.3325 20.2755 47.4807 20.2955C47.8639 20.347 48.3012 20.4725 48.6644 20.8357C49.0276 21.1989 49.1531 21.6362 49.2046 22.0194C49.2503 22.3593 49.2502 22.7714 49.2502 23.1955L49.2502 23.2499V23.4999V23.75L49.2502 23.8044C49.2502 24.2284 49.2503 24.6406 49.2046 24.9805C49.1531 25.3637 49.0276 25.801 48.6644 26.1642C48.3012 26.5274 47.8639 26.6529 47.4807 26.7044C47.3325 26.7243 47.1707 26.7356 47.0001 26.7419V30H50.2583C50.2646 29.8294 50.2758 29.6676 50.2957 29.5195C50.3472 29.1363 50.4727 28.699 50.836 28.3358C51.1992 27.9726 51.6365 27.847 52.0197 27.7955C52.3596 27.7498 52.7717 27.7499 53.1957 27.75H53.1958L53.2502 27.75H53.5002H53.7502L53.8046 27.75H53.8047C54.2287 27.7499 54.6408 27.7498 54.9807 27.7955C55.3639 27.847 55.8012 27.9726 56.1644 28.3358C56.5276 28.699 56.6532 29.1363 56.7047 29.5195C56.7246 29.6676 56.7358 29.8294 56.7421 30H60.0003V26.7419C59.8297 26.7356 59.6679 26.7243 59.5197 26.7044C59.1365 26.6529 58.6992 26.5274 58.336 26.1642C57.9728 25.801 57.8473 25.3637 57.7958 24.9805C57.7501 24.6406 57.7502 24.2285 57.7502 23.8045V23.8044L57.7502 23.75V23.4999V23.2499L57.7502 23.1955V23.1953C57.7502 22.7713 57.7501 22.3593 57.7958 22.0194C57.8473 21.6362 57.9728 21.1989 58.336 20.8357C58.6992 20.4725 59.1365 20.347 59.5197 20.2955C59.6679 20.2755 59.8297 20.2643 60.0003 20.258V16.9999H56.7421C56.7358 17.1704 56.7246 17.3323 56.7047 17.4804C56.6532 17.8636 56.5276 18.3009 56.1644 18.6641C55.8012 19.0273 55.3639 19.1528 54.9807 19.2044C54.6408 19.2501 54.2287 19.25 53.8046 19.2499L53.7502 19.2499H53.5002H53.2502L53.1958 19.2499C52.7717 19.25 52.3596 19.2501 52.0197 19.2044C51.6365 19.1528 51.1992 19.0273 50.836 18.6641C50.4727 18.3009 50.3472 17.8636 50.2957 17.4804C50.2758 17.3323 50.2646 17.1704 50.2583 16.9999H47.0001V20.258ZM37.7071 27.7071L29.7071 35.7071L29 36.4142L28.2929 35.7071L24.2929 31.7071L25.7071 30.2929L29 33.5858L36.2929 26.2929L37.7071 27.7071Z" fill="#FF6231"/>
</svg>
