<svg width="63" height="72" viewBox="0 0 63 72" fill="none" xmlns="http://www.w3.org/2000/svg">
<path fill-rule="evenodd" clip-rule="evenodd" d="M53.0023 7.74245L59.669 1.74245L58.331 0.255859L52.3333 5.65379L49.669 3.25586L48.331 4.74245L51.6644 7.74245L52.3333 8.34452L53.0023 7.74245ZM36.669 21.7424L30.0023 27.7424L29.3333 28.3445L28.6644 27.7424L25.331 24.7424L26.669 23.2559L29.3333 25.6538L35.331 20.2559L36.669 21.7424ZM8.0023 47.7424L14.669 41.7424L13.331 40.2559L7.33333 45.6538L4.66896 43.2559L3.33104 44.7424L6.66437 47.7424L7.33333 48.3445L8.0023 47.7424ZM9.50006 52.9993L9.28114 52.9993C7.16428 52.9988 5.84645 52.9986 4.74998 53.3708C2.68924 54.0703 1.07107 55.6885 0.371546 57.7492C-0.000654399 58.8457 -0.000392615 60.1635 2.77166e-05 62.2804L5.65653e-05 62.4993L2.77166e-05 62.7182C-0.000392615 64.8351 -0.00065428 66.1529 0.371546 67.2494C1.07107 69.3101 2.68924 70.9283 4.74998 71.6278C5.84644 72 7.16427 71.9997 9.28113 71.9993L9.50006 71.9993L9.71899 71.9993C11.8358 71.9997 13.1537 72 14.2501 71.6278C16.3109 70.9283 17.929 69.3101 18.6286 67.2494C19.0008 66.1529 19.0005 64.8351 19.0001 62.7182L19.0001 62.4993L19.0001 62.2804C19.0005 60.1635 19.0008 58.8457 18.6286 57.7492C17.929 55.6885 16.3109 54.0703 14.2501 53.3708C13.1537 52.9986 11.8358 52.9988 9.71898 52.9993L9.50006 52.9993ZM5.39286 55.2646C6.13514 55.0127 7.09174 54.9993 9.50006 54.9993C11.9084 54.9993 12.865 55.0127 13.6073 55.2646C15.0792 55.7643 16.235 56.9201 16.7347 58.3921C16.9867 59.1344 17.0001 60.091 17.0001 62.4993C17.0001 64.9076 16.9867 65.8642 16.7347 66.6065C16.235 68.0784 15.0792 69.2343 13.6073 69.7339C12.865 69.9859 11.9084 69.9993 9.50006 69.9993C7.09174 69.9993 6.13514 69.9859 5.39286 69.7339C3.92091 69.2343 2.76507 68.0784 2.26541 66.6065C2.01343 65.8642 2.00006 64.9076 2.00006 62.4993C2.00006 60.091 2.01343 59.1344 2.26541 58.3921C2.76507 56.9201 3.92091 55.7643 5.39286 55.2646ZM31.2811 32.9993L31.5001 32.9993L31.719 32.9993C33.8358 32.9988 35.1537 32.9986 36.2501 33.3708C38.3109 34.0703 39.929 35.6885 40.6286 37.7492C41.0008 38.8457 41.0005 40.1635 41.0001 42.2803V42.2804L41.0001 42.4993V52.4993V62.4993L41.0001 62.7182V62.7182C41.0005 64.8351 41.0008 66.1529 40.6286 67.2494C39.929 69.3101 38.3109 70.9283 36.2501 71.6278C35.1537 72 33.8359 71.9997 31.7192 71.9993H31.719L31.5001 71.9993L31.2811 71.9993H31.281C29.1642 71.9997 27.8464 72 26.75 71.6278C24.6892 70.9283 23.0711 69.3101 22.3715 67.2494C21.9993 66.1529 21.9996 64.8351 22 62.7182L22.0001 62.4993V52.4993V42.4993L22 42.2804C21.9996 40.1635 21.9993 38.8457 22.3715 37.7492C23.0711 35.6885 24.6892 34.0703 26.75 33.3708C27.8464 32.9986 29.1643 32.9988 31.2811 32.9993ZM31.5001 34.9993C29.0917 34.9993 28.1351 35.0127 27.3929 35.2646C25.9209 35.7643 24.7651 36.9201 24.2654 38.3921C24.0134 39.1344 24.0001 40.091 24.0001 42.4993V52.4993V62.4993C24.0001 64.9076 24.0134 65.8642 24.2654 66.6065C24.7651 68.0784 25.9209 69.2343 27.3929 69.7339C28.1351 69.9859 29.0917 69.9993 31.5001 69.9993C33.9084 69.9993 34.865 69.9859 35.6073 69.7339C37.0792 69.2343 38.235 68.0784 38.7347 66.6065C38.9867 65.8642 39.0001 64.9076 39.0001 62.4993V52.4993V42.4993C39.0001 40.091 38.9867 39.1344 38.7347 38.3921C38.235 36.9201 37.0792 35.7643 35.6073 35.2646C34.865 35.0127 33.9084 34.9993 31.5001 34.9993ZM53.5001 12.9993L53.2811 12.9993C51.1643 12.9988 49.8464 12.9986 48.75 13.3708C46.6892 14.0703 45.0711 15.6885 44.3715 17.7492C43.9993 18.8457 43.9996 20.1635 44 22.2804L44.0001 22.4993V42.4993V62.4993L44 62.7182C43.9996 64.8351 43.9993 66.1529 44.3715 67.2494C45.0711 69.3101 46.6892 70.9283 48.75 71.6278C49.8464 72 51.1642 71.9997 53.281 71.9993H53.2812L53.5001 71.9993L53.7189 71.9993H53.7191C55.8359 71.9997 57.1537 72 58.2501 71.6278C60.3109 70.9283 61.929 69.3101 62.6286 67.2494C63.0008 66.1529 63.0005 64.8351 63.0001 62.7182V62.7182L63.0001 62.4993V42.4993V22.4993L63.0001 22.2804V22.2803C63.0005 20.1635 63.0008 18.8457 62.6286 17.7492C61.929 15.6885 60.3109 14.0703 58.2501 13.3708C57.1537 12.9986 55.8358 12.9988 53.719 12.9993L53.5001 12.9993ZM49.3929 15.2646C50.1351 15.0127 51.0917 14.9993 53.5001 14.9993C55.9084 14.9993 56.865 15.0127 57.6073 15.2646C59.0792 15.7643 60.235 16.9201 60.7347 18.3921C60.9867 19.1344 61.0001 20.091 61.0001 22.4993V42.4993V62.4993C61.0001 64.9076 60.9867 65.8642 60.7347 66.6065C60.235 68.0784 59.0792 69.2343 57.6073 69.7339C56.865 69.9859 55.9084 69.9993 53.5001 69.9993C51.0917 69.9993 50.1351 69.9859 49.3929 69.7339C47.9209 69.2343 46.7651 68.0784 46.2654 66.6065C46.0134 65.8642 46.0001 64.9076 46.0001 62.4993V42.4993V22.4993C46.0001 20.091 46.0134 19.1344 46.2654 18.3921C46.7651 16.9201 47.9209 15.7643 49.3929 15.2646Z" fill="#FF6231"/>
</svg>
